<mxfile host="app.diagrams.net" agent="Mozilla/5.0 (Windows NT 10.0; Win64; x64) AppleWebKit/537.36 (KHTML, like Gecko) Chrome/140.0.0.0 Safari/537.36" version="28.2.5">
  <diagram name="Página-1" id="bWOFeglPuZ9O-7xoG7NV">
    <mxGraphModel dx="1869" dy="535" grid="1" gridSize="10" guides="1" tooltips="1" connect="1" arrows="1" fold="1" page="1" pageScale="1" pageWidth="827" pageHeight="1169" math="0" shadow="0">
      <root>
        <mxCell id="0" />
        <mxCell id="1" parent="0" />
        <mxCell id="l8rJwzOzQN6QrvlHHMYV-1" value="" style="rounded=0;whiteSpace=wrap;html=1;" vertex="1" parent="1">
          <mxGeometry x="160" y="140" width="510" height="1220" as="geometry" />
        </mxCell>
        <mxCell id="l8rJwzOzQN6QrvlHHMYV-2" value="&lt;span id=&quot;docs-internal-guid-1c4c0ff0-7fff-c8d2-04bb-5712a151afd2&quot;&gt;&lt;span style=&quot;font-size: 10pt; font-family: Arial, sans-serif; background-color: transparent; font-variant-numeric: normal; font-variant-east-asian: normal; font-variant-alternates: normal; font-variant-position: normal; font-variant-emoji: normal; vertical-align: baseline; white-space-collapse: preserve;&quot;&gt;Registro de usuario&lt;/span&gt;&lt;/span&gt;" style="ellipse;whiteSpace=wrap;html=1;fillColor=#d5e8d4;strokeColor=#82b366;" vertex="1" parent="1">
          <mxGeometry x="330" y="150" width="150" height="40" as="geometry" />
        </mxCell>
        <mxCell id="l8rJwzOzQN6QrvlHHMYV-3" value="&lt;br&gt;&lt;b id=&quot;docs-internal-guid-9ea30d88-7fff-0926-04cd-9cebba74ba92&quot; style=&quot;font-weight:normal;&quot;&gt;&lt;span style=&quot;font-size: 10pt; font-family: Arial, sans-serif; color: rgb(0, 0, 0); background-color: transparent; font-weight: 400; font-style: normal; font-variant: normal; text-decoration: none; vertical-align: baseline; white-space: pre-wrap;&quot;&gt;Autenticar usuario &lt;/span&gt;&lt;/b&gt;" style="ellipse;whiteSpace=wrap;html=1;fillColor=#d5e8d4;strokeColor=#82b366;" vertex="1" parent="1">
          <mxGeometry x="330" y="200" width="150" height="40" as="geometry" />
        </mxCell>
        <mxCell id="l8rJwzOzQN6QrvlHHMYV-4" value="&#xa;&lt;b id=&quot;docs-internal-guid-18779c16-7fff-521e-7f58-c33a0334452b&quot; style=&quot;font-weight:normal;&quot;&gt;&lt;span style=&quot;font-size:10pt;font-family:Arial,sans-serif;color:#000000;background-color:transparent;font-weight:400;font-style:normal;font-variant:normal;text-decoration:none;vertical-align:baseline;white-space:pre;white-space:pre-wrap;&quot;&gt;Perfil de usuario&lt;/span&gt;&lt;/b&gt;&#xa;&#xa;" style="ellipse;whiteSpace=wrap;html=1;fillColor=#d5e8d4;strokeColor=#82b366;" vertex="1" parent="1">
          <mxGeometry x="330" y="270" width="150" height="40" as="geometry" />
        </mxCell>
        <mxCell id="l8rJwzOzQN6QrvlHHMYV-6" value="&lt;span id=&quot;docs-internal-guid-6348064b-7fff-1d82-e889-ba3c6852fc6e&quot;&gt;&lt;span style=&quot;font-size: 10pt; font-family: Arial, sans-serif; background-color: transparent; font-variant-numeric: normal; font-variant-east-asian: normal; font-variant-alternates: normal; font-variant-position: normal; font-variant-emoji: normal; vertical-align: baseline; white-space-collapse: preserve;&quot;&gt;Recuperar de contraseña&lt;/span&gt;&lt;/span&gt;" style="ellipse;whiteSpace=wrap;html=1;fillColor=#d5e8d4;strokeColor=#82b366;" vertex="1" parent="1">
          <mxGeometry x="330" y="320" width="160" height="50" as="geometry" />
        </mxCell>
        <mxCell id="l8rJwzOzQN6QrvlHHMYV-7" value="&#xa;&lt;b id=&quot;docs-internal-guid-bf66afde-7fff-4cec-e4b1-e735b1fce7c8&quot; style=&quot;font-weight:normal;&quot;&gt;&lt;span style=&quot;font-size:10pt;font-family:Arial,sans-serif;color:#000000;background-color:transparent;font-weight:400;font-style:normal;font-variant:normal;text-decoration:none;vertical-align:baseline;white-space:pre;white-space:pre-wrap;&quot;&gt;Cambiar contraseña&lt;/span&gt;&lt;/b&gt;&#xa;&#xa;" style="ellipse;whiteSpace=wrap;html=1;fillColor=#d5e8d4;strokeColor=#82b366;" vertex="1" parent="1">
          <mxGeometry x="330" y="380" width="150" height="50" as="geometry" />
        </mxCell>
        <mxCell id="l8rJwzOzQN6QrvlHHMYV-8" value="&#xa;&lt;b id=&quot;docs-internal-guid-39eae7ac-7fff-93d9-89fe-cb98b731d80b&quot; style=&quot;font-weight:normal;&quot;&gt;&lt;span style=&quot;font-size:10pt;font-family:Arial,sans-serif;color:#000000;background-color:transparent;font-weight:400;font-style:normal;font-variant:normal;text-decoration:none;vertical-align:baseline;white-space:pre;white-space:pre-wrap;&quot;&gt;Visualizar portafolio&lt;/span&gt;&lt;/b&gt;&#xa;&#xa;" style="ellipse;whiteSpace=wrap;html=1;fillColor=#d5e8d4;strokeColor=#82b366;" vertex="1" parent="1">
          <mxGeometry x="340" y="440" width="150" height="50" as="geometry" />
        </mxCell>
        <mxCell id="l8rJwzOzQN6QrvlHHMYV-9" value="&#xa;&lt;b id=&quot;docs-internal-guid-765f8f9a-7fff-c924-45c9-bb60db925019&quot; style=&quot;font-weight:normal;&quot;&gt;&lt;span style=&quot;font-size:10pt;font-family:Arial,sans-serif;color:#000000;background-color:transparent;font-weight:400;font-style:normal;font-variant:normal;text-decoration:none;vertical-align:baseline;white-space:pre;white-space:pre-wrap;&quot;&gt;Visualizar servicios&lt;/span&gt;&lt;/b&gt;&#xa;&#xa;" style="ellipse;whiteSpace=wrap;html=1;fillColor=#d5e8d4;strokeColor=#82b366;" vertex="1" parent="1">
          <mxGeometry x="344" y="500" width="140" height="50" as="geometry" />
        </mxCell>
        <mxCell id="l8rJwzOzQN6QrvlHHMYV-10" value="&#xa;&lt;b id=&quot;docs-internal-guid-39bb7aa5-7fff-167d-5c0a-05fe0f9a3666&quot; style=&quot;font-weight:normal;&quot;&gt;&lt;span style=&quot;font-size:10pt;font-family:Arial,sans-serif;color:#000000;background-color:transparent;font-weight:400;font-style:normal;font-variant:normal;text-decoration:none;vertical-align:baseline;white-space:pre;white-space:pre-wrap;&quot;&gt;Agendar cita&lt;/span&gt;&lt;/b&gt;&#xa;&#xa;" style="ellipse;whiteSpace=wrap;html=1;fillColor=#d5e8d4;strokeColor=#82b366;" vertex="1" parent="1">
          <mxGeometry x="354" y="564.5" width="120" height="40" as="geometry" />
        </mxCell>
        <mxCell id="l8rJwzOzQN6QrvlHHMYV-11" value="&#xa;&lt;b id=&quot;docs-internal-guid-0c8292ee-7fff-4b05-d51d-086952dc27de&quot; style=&quot;font-weight:normal;&quot;&gt;&lt;span style=&quot;font-size:10pt;font-family:Arial,sans-serif;color:#000000;background-color:transparent;font-weight:400;font-style:normal;font-variant:normal;text-decoration:none;vertical-align:baseline;white-space:pre;white-space:pre-wrap;&quot;&gt;Productos/insumos adicionales&lt;/span&gt;&lt;/b&gt;&#xa;&#xa;" style="ellipse;whiteSpace=wrap;html=1;fillColor=#d5e8d4;strokeColor=#82b366;" vertex="1" parent="1">
          <mxGeometry x="310" y="610" width="220" height="50" as="geometry" />
        </mxCell>
        <mxCell id="l8rJwzOzQN6QrvlHHMYV-12" value="&#xa;&lt;b id=&quot;docs-internal-guid-b1156e38-7fff-b6f6-85f7-18cf00e9137f&quot; style=&quot;font-weight:normal;&quot;&gt;&lt;span style=&quot;font-size:10pt;font-family:Arial,sans-serif;color:#000000;background-color:transparent;font-weight:400;font-style:normal;font-variant:normal;text-decoration:none;vertical-align:baseline;white-space:pre;white-space:pre-wrap;&quot;&gt;Comentarios: Publicar y moderar&lt;/span&gt;&lt;/b&gt;&#xa;&#xa;" style="ellipse;whiteSpace=wrap;html=1;fillColor=#d5e8d4;strokeColor=#82b366;" vertex="1" parent="1">
          <mxGeometry x="325" y="750" width="215" height="60" as="geometry" />
        </mxCell>
        <mxCell id="l8rJwzOzQN6QrvlHHMYV-13" value="&#xa;&lt;b id=&quot;docs-internal-guid-942db7ec-7fff-3433-b996-df7a02ba4a40&quot; style=&quot;font-weight:normal;&quot;&gt;&lt;span style=&quot;font-size:10pt;font-family:Arial,sans-serif;color:#000000;background-color:transparent;font-weight:400;font-style:normal;font-variant:normal;text-decoration:none;vertical-align:baseline;white-space:pre;white-space:pre-wrap;&quot;&gt;Mensajería: Chat interno y redirección a WhatsApp&lt;/span&gt;&lt;/b&gt;&#xa;&#xa;" style="ellipse;whiteSpace=wrap;html=1;fillColor=#d5e8d4;strokeColor=#82b366;" vertex="1" parent="1">
          <mxGeometry x="325" y="820" width="213" height="80" as="geometry" />
        </mxCell>
        <mxCell id="l8rJwzOzQN6QrvlHHMYV-14" value="&#xa;&lt;b id=&quot;docs-internal-guid-c2863e91-7fff-822b-7e9c-6bc60244332d&quot; style=&quot;font-weight:normal;&quot;&gt;&lt;span style=&quot;font-size:10pt;font-family:Arial,sans-serif;color:#000000;background-color:transparent;font-weight:400;font-style:normal;font-variant:normal;text-decoration:none;vertical-align:baseline;white-space:pre;white-space:pre-wrap;&quot;&gt;Historial de citas&lt;/span&gt;&lt;/b&gt;&#xa;&#xa;" style="ellipse;whiteSpace=wrap;html=1;fillColor=#d5e8d4;strokeColor=#82b366;" vertex="1" parent="1">
          <mxGeometry x="325" y="920" width="190" height="50" as="geometry" />
        </mxCell>
        <mxCell id="l8rJwzOzQN6QrvlHHMYV-15" value="&#xa;&lt;b id=&quot;docs-internal-guid-4797560e-7fff-c021-bb5c-95f4e9dd28de&quot; style=&quot;font-weight:normal;&quot;&gt;&lt;span style=&quot;font-size:10pt;font-family:Arial,sans-serif;color:#000000;background-color:transparent;font-weight:400;font-style:normal;font-variant:normal;text-decoration:none;vertical-align:baseline;white-space:pre;white-space:pre-wrap;&quot;&gt;Gestión de usuarios&lt;/span&gt;&lt;/b&gt;&#xa;&#xa;" style="ellipse;whiteSpace=wrap;html=1;fillColor=#d5e8d4;strokeColor=#82b366;" vertex="1" parent="1">
          <mxGeometry x="327.5" y="1050" width="150" height="50" as="geometry" />
        </mxCell>
        <mxCell id="l8rJwzOzQN6QrvlHHMYV-16" value="&#xa;&lt;b id=&quot;docs-internal-guid-4fa5d752-7fff-f439-0d92-3b271f432fbb&quot; style=&quot;font-weight:normal;&quot;&gt;&lt;span style=&quot;font-size:10pt;font-family:Arial,sans-serif;color:#000000;background-color:transparent;font-weight:400;font-style:normal;font-variant:normal;text-decoration:none;vertical-align:baseline;white-space:pre;white-space:pre-wrap;&quot;&gt;Gestión de portafolio&lt;/span&gt;&lt;/b&gt;&#xa;&#xa;" style="ellipse;whiteSpace=wrap;html=1;fillColor=#d5e8d4;strokeColor=#82b366;" vertex="1" parent="1">
          <mxGeometry x="312.5" y="1110" width="180" height="50" as="geometry" />
        </mxCell>
        <mxCell id="l8rJwzOzQN6QrvlHHMYV-17" value="&#xa;&lt;b id=&quot;docs-internal-guid-76611f55-7fff-2a5b-448e-77b8a36721e1&quot; style=&quot;font-weight:normal;&quot;&gt;&lt;span style=&quot;font-size:10pt;font-family:Arial,sans-serif;color:#000000;background-color:transparent;font-weight:400;font-style:normal;font-variant:normal;text-decoration:none;vertical-align:baseline;white-space:pre;white-space:pre-wrap;&quot;&gt;Gestión de servicios&lt;/span&gt;&lt;/b&gt;&#xa;&#xa;" style="ellipse;whiteSpace=wrap;html=1;fillColor=#d5e8d4;strokeColor=#82b366;" vertex="1" parent="1">
          <mxGeometry x="330" y="1169" width="160" height="50" as="geometry" />
        </mxCell>
        <mxCell id="l8rJwzOzQN6QrvlHHMYV-18" value="&#xa;&lt;b id=&quot;docs-internal-guid-062d5c12-7fff-6e5a-bc93-e45b99d413e1&quot; style=&quot;font-weight:normal;&quot;&gt;&lt;span style=&quot;font-size:10pt;font-family:Arial,sans-serif;color:#000000;background-color:transparent;font-weight:400;font-style:normal;font-variant:normal;text-decoration:none;vertical-align:baseline;white-space:pre;white-space:pre-wrap;&quot;&gt;Gestionar agenda y estados&lt;/span&gt;&lt;/b&gt;&#xa;&#xa;" style="ellipse;whiteSpace=wrap;html=1;fillColor=#d5e8d4;strokeColor=#82b366;" vertex="1" parent="1">
          <mxGeometry x="310" y="1230" width="200" height="50" as="geometry" />
        </mxCell>
        <mxCell id="l8rJwzOzQN6QrvlHHMYV-19" value="&#xa;&lt;b id=&quot;docs-internal-guid-5fb6adc2-7fff-b2be-b64a-6b5a613f0d5e&quot; style=&quot;font-weight:normal;&quot;&gt;&lt;span style=&quot;font-size:10pt;font-family:Arial,sans-serif;color:#000000;background-color:transparent;font-weight:400;font-style:normal;font-variant:normal;text-decoration:none;vertical-align:baseline;white-space:pre;white-space:pre-wrap;&quot;&gt;Reportes estadísticos&lt;/span&gt;&lt;/b&gt;&#xa;&#xa;" style="ellipse;whiteSpace=wrap;html=1;fillColor=#d5e8d4;strokeColor=#82b366;" vertex="1" parent="1">
          <mxGeometry x="315" y="1290" width="190" height="50" as="geometry" />
        </mxCell>
        <mxCell id="l8rJwzOzQN6QrvlHHMYV-20" value="&#xa;&lt;b id=&quot;docs-internal-guid-9ae5f3c7-7fff-ea96-c9b3-2e37af7676b3&quot; style=&quot;font-weight:normal;&quot;&gt;&lt;span style=&quot;font-size:10pt;font-family:Arial,sans-serif;color:#000000;background-color:transparent;font-weight:400;font-style:normal;font-variant:normal;text-decoration:none;vertical-align:baseline;white-space:pre;white-space:pre-wrap;&quot;&gt;Pagos &lt;/span&gt;&lt;/b&gt;&#xa;&#xa;" style="ellipse;whiteSpace=wrap;html=1;fillColor=#d5e8d4;strokeColor=#82b366;" vertex="1" parent="1">
          <mxGeometry x="307.5" y="1000" width="197.5" height="40" as="geometry" />
        </mxCell>
        <mxCell id="l8rJwzOzQN6QrvlHHMYV-21" value="&#xa;&lt;b id=&quot;docs-internal-guid-30590023-7fff-3d28-0644-fb149eb39857&quot; style=&quot;font-weight:normal;&quot;&gt;&lt;span style=&quot;font-size:10pt;font-family:Arial,sans-serif;color:#000000;background-color:transparent;font-weight:400;font-style:normal;font-variant:normal;text-decoration:none;vertical-align:baseline;white-space:pre;white-space:pre-wrap;&quot;&gt;Recordatorios y notificaciones push/correo&lt;/span&gt;&lt;/b&gt;&#xa;&#xa;" style="ellipse;whiteSpace=wrap;html=1;fillColor=#d5e8d4;strokeColor=#82b366;" vertex="1" parent="1">
          <mxGeometry x="307.5" y="670" width="250" height="70" as="geometry" />
        </mxCell>
        <mxCell id="l8rJwzOzQN6QrvlHHMYV-22" value="Administrador" style="shape=umlActor;verticalLabelPosition=bottom;verticalAlign=top;html=1;outlineConnect=0;" vertex="1" parent="1">
          <mxGeometry x="10" y="820" width="30" height="60" as="geometry" />
        </mxCell>
        <mxCell id="l8rJwzOzQN6QrvlHHMYV-26" value="Cliente" style="shape=umlActor;verticalLabelPosition=bottom;verticalAlign=top;html=1;outlineConnect=0;" vertex="1" parent="1">
          <mxGeometry x="20" y="470" width="30" height="70" as="geometry" />
        </mxCell>
        <mxCell id="l8rJwzOzQN6QrvlHHMYV-28" value="Jardinero" style="shape=umlActor;verticalLabelPosition=bottom;verticalAlign=top;html=1;outlineConnect=0;" vertex="1" parent="1">
          <mxGeometry x="40" y="180" width="30" height="60" as="geometry" />
        </mxCell>
        <mxCell id="l8rJwzOzQN6QrvlHHMYV-41" value="" style="endArrow=classic;html=1;rounded=0;entryX=0;entryY=0.5;entryDx=0;entryDy=0;" edge="1" parent="1" source="l8rJwzOzQN6QrvlHHMYV-26" target="l8rJwzOzQN6QrvlHHMYV-2">
          <mxGeometry width="50" height="50" relative="1" as="geometry">
            <mxPoint x="430" y="370" as="sourcePoint" />
            <mxPoint x="480" y="320" as="targetPoint" />
          </mxGeometry>
        </mxCell>
        <mxCell id="l8rJwzOzQN6QrvlHHMYV-42" value="" style="endArrow=classic;html=1;rounded=0;exitX=1;exitY=0.3333333333333333;exitDx=0;exitDy=0;exitPerimeter=0;entryX=0;entryY=0.5;entryDx=0;entryDy=0;" edge="1" parent="1" source="l8rJwzOzQN6QrvlHHMYV-22" target="l8rJwzOzQN6QrvlHHMYV-2">
          <mxGeometry width="50" height="50" relative="1" as="geometry">
            <mxPoint x="430" y="370" as="sourcePoint" />
            <mxPoint x="480" y="320" as="targetPoint" />
          </mxGeometry>
        </mxCell>
        <mxCell id="l8rJwzOzQN6QrvlHHMYV-45" value="" style="endArrow=classic;html=1;rounded=0;exitX=0.5;exitY=0.5;exitDx=0;exitDy=0;exitPerimeter=0;" edge="1" parent="1" source="l8rJwzOzQN6QrvlHHMYV-28" target="l8rJwzOzQN6QrvlHHMYV-3">
          <mxGeometry width="50" height="50" relative="1" as="geometry">
            <mxPoint x="430" y="370" as="sourcePoint" />
            <mxPoint x="480" y="320" as="targetPoint" />
          </mxGeometry>
        </mxCell>
        <mxCell id="l8rJwzOzQN6QrvlHHMYV-46" value="" style="endArrow=classic;html=1;rounded=0;exitX=1;exitY=0.3333333333333333;exitDx=0;exitDy=0;exitPerimeter=0;entryX=0;entryY=0.5;entryDx=0;entryDy=0;" edge="1" parent="1" source="l8rJwzOzQN6QrvlHHMYV-26" target="l8rJwzOzQN6QrvlHHMYV-3">
          <mxGeometry width="50" height="50" relative="1" as="geometry">
            <mxPoint x="430" y="370" as="sourcePoint" />
            <mxPoint x="480" y="320" as="targetPoint" />
          </mxGeometry>
        </mxCell>
        <mxCell id="l8rJwzOzQN6QrvlHHMYV-47" value="" style="endArrow=classic;html=1;rounded=0;entryX=0.011;entryY=0.71;entryDx=0;entryDy=0;entryPerimeter=0;" edge="1" parent="1" source="l8rJwzOzQN6QrvlHHMYV-22" target="l8rJwzOzQN6QrvlHHMYV-3">
          <mxGeometry width="50" height="50" relative="1" as="geometry">
            <mxPoint x="430" y="370" as="sourcePoint" />
            <mxPoint x="480" y="320" as="targetPoint" />
          </mxGeometry>
        </mxCell>
        <mxCell id="l8rJwzOzQN6QrvlHHMYV-48" value="" style="endArrow=classic;html=1;rounded=0;entryX=0.059;entryY=0.4;entryDx=0;entryDy=0;entryPerimeter=0;" edge="1" parent="1" source="l8rJwzOzQN6QrvlHHMYV-28" target="l8rJwzOzQN6QrvlHHMYV-4">
          <mxGeometry width="50" height="50" relative="1" as="geometry">
            <mxPoint x="100" y="190" as="sourcePoint" />
            <mxPoint x="480" y="320" as="targetPoint" />
          </mxGeometry>
        </mxCell>
        <mxCell id="l8rJwzOzQN6QrvlHHMYV-49" value="" style="endArrow=classic;html=1;rounded=0;exitX=1;exitY=0.3333333333333333;exitDx=0;exitDy=0;exitPerimeter=0;entryX=0;entryY=0.5;entryDx=0;entryDy=0;" edge="1" parent="1" source="l8rJwzOzQN6QrvlHHMYV-26" target="l8rJwzOzQN6QrvlHHMYV-4">
          <mxGeometry width="50" height="50" relative="1" as="geometry">
            <mxPoint x="430" y="370" as="sourcePoint" />
            <mxPoint x="480" y="320" as="targetPoint" />
          </mxGeometry>
        </mxCell>
        <mxCell id="l8rJwzOzQN6QrvlHHMYV-50" value="" style="endArrow=classic;html=1;rounded=0;exitX=1;exitY=0.3333333333333333;exitDx=0;exitDy=0;exitPerimeter=0;" edge="1" parent="1" source="l8rJwzOzQN6QrvlHHMYV-22">
          <mxGeometry width="50" height="50" relative="1" as="geometry">
            <mxPoint x="430" y="370" as="sourcePoint" />
            <mxPoint x="340" y="300" as="targetPoint" />
          </mxGeometry>
        </mxCell>
        <mxCell id="l8rJwzOzQN6QrvlHHMYV-51" value="" style="endArrow=classic;html=1;rounded=0;exitX=0.5;exitY=0.5;exitDx=0;exitDy=0;exitPerimeter=0;entryX=0.035;entryY=0.264;entryDx=0;entryDy=0;entryPerimeter=0;" edge="1" parent="1" source="l8rJwzOzQN6QrvlHHMYV-28" target="l8rJwzOzQN6QrvlHHMYV-6">
          <mxGeometry width="50" height="50" relative="1" as="geometry">
            <mxPoint x="430" y="470" as="sourcePoint" />
            <mxPoint x="330" y="330" as="targetPoint" />
          </mxGeometry>
        </mxCell>
        <mxCell id="l8rJwzOzQN6QrvlHHMYV-52" value="" style="endArrow=classic;html=1;rounded=0;exitX=0.5;exitY=0.5;exitDx=0;exitDy=0;exitPerimeter=0;" edge="1" parent="1" source="l8rJwzOzQN6QrvlHHMYV-26" target="l8rJwzOzQN6QrvlHHMYV-6">
          <mxGeometry width="50" height="50" relative="1" as="geometry">
            <mxPoint x="110" y="340" as="sourcePoint" />
            <mxPoint x="480" y="420" as="targetPoint" />
          </mxGeometry>
        </mxCell>
        <mxCell id="l8rJwzOzQN6QrvlHHMYV-53" value="" style="endArrow=classic;html=1;rounded=0;entryX=0;entryY=0.5;entryDx=0;entryDy=0;" edge="1" parent="1" source="l8rJwzOzQN6QrvlHHMYV-22" target="l8rJwzOzQN6QrvlHHMYV-6">
          <mxGeometry width="50" height="50" relative="1" as="geometry">
            <mxPoint x="110" y="500" as="sourcePoint" />
            <mxPoint x="480" y="420" as="targetPoint" />
          </mxGeometry>
        </mxCell>
        <mxCell id="l8rJwzOzQN6QrvlHHMYV-54" value="" style="endArrow=classic;html=1;rounded=0;entryX=0.08;entryY=0.168;entryDx=0;entryDy=0;entryPerimeter=0;" edge="1" parent="1" source="l8rJwzOzQN6QrvlHHMYV-28" target="l8rJwzOzQN6QrvlHHMYV-7">
          <mxGeometry width="50" height="50" relative="1" as="geometry">
            <mxPoint x="100" y="190" as="sourcePoint" />
            <mxPoint x="480" y="420" as="targetPoint" />
          </mxGeometry>
        </mxCell>
        <mxCell id="l8rJwzOzQN6QrvlHHMYV-55" value="" style="endArrow=classic;html=1;rounded=0;entryX=0;entryY=0.5;entryDx=0;entryDy=0;" edge="1" parent="1" source="l8rJwzOzQN6QrvlHHMYV-26" target="l8rJwzOzQN6QrvlHHMYV-7">
          <mxGeometry width="50" height="50" relative="1" as="geometry">
            <mxPoint x="110" y="350" as="sourcePoint" />
            <mxPoint x="480" y="420" as="targetPoint" />
          </mxGeometry>
        </mxCell>
        <mxCell id="l8rJwzOzQN6QrvlHHMYV-56" value="" style="endArrow=classic;html=1;rounded=0;entryX=0.069;entryY=0.712;entryDx=0;entryDy=0;entryPerimeter=0;" edge="1" parent="1" source="l8rJwzOzQN6QrvlHHMYV-22" target="l8rJwzOzQN6QrvlHHMYV-7">
          <mxGeometry width="50" height="50" relative="1" as="geometry">
            <mxPoint x="110" y="500" as="sourcePoint" />
            <mxPoint x="480" y="420" as="targetPoint" />
          </mxGeometry>
        </mxCell>
        <mxCell id="l8rJwzOzQN6QrvlHHMYV-57" value="" style="endArrow=classic;html=1;rounded=0;entryX=0.067;entryY=0.344;entryDx=0;entryDy=0;entryPerimeter=0;" edge="1" parent="1" source="l8rJwzOzQN6QrvlHHMYV-28" target="l8rJwzOzQN6QrvlHHMYV-8">
          <mxGeometry width="50" height="50" relative="1" as="geometry">
            <mxPoint x="430" y="470" as="sourcePoint" />
            <mxPoint x="480" y="420" as="targetPoint" />
          </mxGeometry>
        </mxCell>
        <mxCell id="l8rJwzOzQN6QrvlHHMYV-58" value="" style="endArrow=classic;html=1;rounded=0;entryX=0;entryY=0.5;entryDx=0;entryDy=0;" edge="1" parent="1" source="l8rJwzOzQN6QrvlHHMYV-26" target="l8rJwzOzQN6QrvlHHMYV-8">
          <mxGeometry width="50" height="50" relative="1" as="geometry">
            <mxPoint x="110" y="340" as="sourcePoint" />
            <mxPoint x="480" y="420" as="targetPoint" />
          </mxGeometry>
        </mxCell>
        <mxCell id="l8rJwzOzQN6QrvlHHMYV-59" value="" style="endArrow=classic;html=1;rounded=0;entryX=0;entryY=0.5;entryDx=0;entryDy=0;" edge="1" parent="1" source="l8rJwzOzQN6QrvlHHMYV-22" target="l8rJwzOzQN6QrvlHHMYV-8">
          <mxGeometry width="50" height="50" relative="1" as="geometry">
            <mxPoint x="120" y="500" as="sourcePoint" />
            <mxPoint x="480" y="420" as="targetPoint" />
          </mxGeometry>
        </mxCell>
        <mxCell id="l8rJwzOzQN6QrvlHHMYV-60" value="" style="endArrow=classic;html=1;rounded=0;entryX=0.037;entryY=0.36;entryDx=0;entryDy=0;entryPerimeter=0;" edge="1" parent="1" source="l8rJwzOzQN6QrvlHHMYV-28" target="l8rJwzOzQN6QrvlHHMYV-9">
          <mxGeometry width="50" height="50" relative="1" as="geometry">
            <mxPoint x="110" y="200" as="sourcePoint" />
            <mxPoint x="480" y="420" as="targetPoint" />
          </mxGeometry>
        </mxCell>
        <mxCell id="l8rJwzOzQN6QrvlHHMYV-61" value="" style="endArrow=classic;html=1;rounded=0;entryX=0;entryY=0.5;entryDx=0;entryDy=0;exitX=0.5;exitY=0.5;exitDx=0;exitDy=0;exitPerimeter=0;" edge="1" parent="1" source="l8rJwzOzQN6QrvlHHMYV-26" target="l8rJwzOzQN6QrvlHHMYV-9">
          <mxGeometry width="50" height="50" relative="1" as="geometry">
            <mxPoint x="110" y="350" as="sourcePoint" />
            <mxPoint x="480" y="420" as="targetPoint" />
          </mxGeometry>
        </mxCell>
        <mxCell id="l8rJwzOzQN6QrvlHHMYV-62" value="" style="endArrow=classic;html=1;rounded=0;entryX=0;entryY=0.5;entryDx=0;entryDy=0;" edge="1" parent="1" source="l8rJwzOzQN6QrvlHHMYV-22" target="l8rJwzOzQN6QrvlHHMYV-9">
          <mxGeometry width="50" height="50" relative="1" as="geometry">
            <mxPoint x="430" y="470" as="sourcePoint" />
            <mxPoint x="480" y="420" as="targetPoint" />
          </mxGeometry>
        </mxCell>
        <mxCell id="l8rJwzOzQN6QrvlHHMYV-63" value="" style="endArrow=classic;html=1;rounded=0;entryX=0.073;entryY=0.278;entryDx=0;entryDy=0;entryPerimeter=0;" edge="1" parent="1" source="l8rJwzOzQN6QrvlHHMYV-26" target="l8rJwzOzQN6QrvlHHMYV-10">
          <mxGeometry width="50" height="50" relative="1" as="geometry">
            <mxPoint x="110" y="350" as="sourcePoint" />
            <mxPoint x="480" y="420" as="targetPoint" />
          </mxGeometry>
        </mxCell>
        <mxCell id="l8rJwzOzQN6QrvlHHMYV-64" value="" style="endArrow=classic;html=1;rounded=0;entryX=0.116;entryY=0.272;entryDx=0;entryDy=0;entryPerimeter=0;exitX=0.5;exitY=0.5;exitDx=0;exitDy=0;exitPerimeter=0;" edge="1" parent="1" source="l8rJwzOzQN6QrvlHHMYV-28" target="l8rJwzOzQN6QrvlHHMYV-11">
          <mxGeometry width="50" height="50" relative="1" as="geometry">
            <mxPoint x="100" y="200" as="sourcePoint" />
            <mxPoint x="480" y="420" as="targetPoint" />
          </mxGeometry>
        </mxCell>
        <mxCell id="l8rJwzOzQN6QrvlHHMYV-65" value="" style="endArrow=classic;html=1;rounded=0;entryX=0.047;entryY=0.304;entryDx=0;entryDy=0;entryPerimeter=0;" edge="1" parent="1" source="l8rJwzOzQN6QrvlHHMYV-26" target="l8rJwzOzQN6QrvlHHMYV-11">
          <mxGeometry width="50" height="50" relative="1" as="geometry">
            <mxPoint x="120" y="340" as="sourcePoint" />
            <mxPoint x="480" y="420" as="targetPoint" />
          </mxGeometry>
        </mxCell>
        <mxCell id="l8rJwzOzQN6QrvlHHMYV-66" value="" style="endArrow=classic;html=1;rounded=0;entryX=0.007;entryY=0.336;entryDx=0;entryDy=0;entryPerimeter=0;exitX=0.5;exitY=0.5;exitDx=0;exitDy=0;exitPerimeter=0;" edge="1" parent="1" source="l8rJwzOzQN6QrvlHHMYV-22" target="l8rJwzOzQN6QrvlHHMYV-11">
          <mxGeometry width="50" height="50" relative="1" as="geometry">
            <mxPoint x="110" y="490" as="sourcePoint" />
            <mxPoint x="480" y="420" as="targetPoint" />
          </mxGeometry>
        </mxCell>
        <mxCell id="l8rJwzOzQN6QrvlHHMYV-67" value="" style="endArrow=classic;html=1;rounded=0;entryX=0.037;entryY=0.293;entryDx=0;entryDy=0;entryPerimeter=0;exitX=0.5;exitY=0.5;exitDx=0;exitDy=0;exitPerimeter=0;" edge="1" parent="1" source="l8rJwzOzQN6QrvlHHMYV-26" target="l8rJwzOzQN6QrvlHHMYV-12">
          <mxGeometry width="50" height="50" relative="1" as="geometry">
            <mxPoint x="120" y="340" as="sourcePoint" />
            <mxPoint x="480" y="520" as="targetPoint" />
          </mxGeometry>
        </mxCell>
        <mxCell id="l8rJwzOzQN6QrvlHHMYV-68" value="" style="endArrow=classic;html=1;rounded=0;entryX=0;entryY=0.5;entryDx=0;entryDy=0;exitX=0.5;exitY=0.5;exitDx=0;exitDy=0;exitPerimeter=0;" edge="1" parent="1" source="l8rJwzOzQN6QrvlHHMYV-22" target="l8rJwzOzQN6QrvlHHMYV-12">
          <mxGeometry width="50" height="50" relative="1" as="geometry">
            <mxPoint x="120" y="510" as="sourcePoint" />
            <mxPoint x="480" y="520" as="targetPoint" />
          </mxGeometry>
        </mxCell>
        <mxCell id="l8rJwzOzQN6QrvlHHMYV-69" value="WhatsApp" style="shape=umlActor;verticalLabelPosition=bottom;verticalAlign=top;html=1;outlineConnect=0;" vertex="1" parent="1">
          <mxGeometry x="730" y="810" width="30" height="60" as="geometry" />
        </mxCell>
        <mxCell id="l8rJwzOzQN6QrvlHHMYV-71" value="" style="endArrow=none;dashed=1;html=1;dashPattern=1 3;strokeWidth=2;rounded=0;entryX=0;entryY=1;entryDx=0;entryDy=0;entryPerimeter=0;exitX=1;exitY=0.5;exitDx=0;exitDy=0;" edge="1" parent="1" source="l8rJwzOzQN6QrvlHHMYV-13" target="l8rJwzOzQN6QrvlHHMYV-69">
          <mxGeometry width="50" height="50" relative="1" as="geometry">
            <mxPoint x="430" y="770" as="sourcePoint" />
            <mxPoint x="480" y="720" as="targetPoint" />
          </mxGeometry>
        </mxCell>
        <mxCell id="l8rJwzOzQN6QrvlHHMYV-74" value="" style="endArrow=classic;html=1;rounded=0;exitX=1;exitY=0.3333333333333333;exitDx=0;exitDy=0;exitPerimeter=0;entryX=0.043;entryY=0.335;entryDx=0;entryDy=0;entryPerimeter=0;" edge="1" parent="1" source="l8rJwzOzQN6QrvlHHMYV-26" target="l8rJwzOzQN6QrvlHHMYV-13">
          <mxGeometry width="50" height="50" relative="1" as="geometry">
            <mxPoint x="430" y="770" as="sourcePoint" />
            <mxPoint x="480" y="720" as="targetPoint" />
          </mxGeometry>
        </mxCell>
        <mxCell id="l8rJwzOzQN6QrvlHHMYV-75" value="" style="endArrow=classic;html=1;rounded=0;exitX=1;exitY=0.3333333333333333;exitDx=0;exitDy=0;exitPerimeter=0;entryX=0;entryY=0.5;entryDx=0;entryDy=0;" edge="1" parent="1" source="l8rJwzOzQN6QrvlHHMYV-22" target="l8rJwzOzQN6QrvlHHMYV-13">
          <mxGeometry width="50" height="50" relative="1" as="geometry">
            <mxPoint x="430" y="630" as="sourcePoint" />
            <mxPoint x="480" y="580" as="targetPoint" />
          </mxGeometry>
        </mxCell>
        <mxCell id="l8rJwzOzQN6QrvlHHMYV-76" value="" style="endArrow=classic;html=1;rounded=0;entryX=0.054;entryY=0.344;entryDx=0;entryDy=0;entryPerimeter=0;" edge="1" parent="1" source="l8rJwzOzQN6QrvlHHMYV-28" target="l8rJwzOzQN6QrvlHHMYV-14">
          <mxGeometry width="50" height="50" relative="1" as="geometry">
            <mxPoint x="100" y="190" as="sourcePoint" />
            <mxPoint x="480" y="280" as="targetPoint" />
          </mxGeometry>
        </mxCell>
        <mxCell id="l8rJwzOzQN6QrvlHHMYV-77" value="" style="endArrow=classic;html=1;rounded=0;entryX=0;entryY=0.5;entryDx=0;entryDy=0;" edge="1" parent="1" source="l8rJwzOzQN6QrvlHHMYV-26" target="l8rJwzOzQN6QrvlHHMYV-14">
          <mxGeometry width="50" height="50" relative="1" as="geometry">
            <mxPoint x="110" y="350" as="sourcePoint" />
            <mxPoint x="480" y="570" as="targetPoint" />
          </mxGeometry>
        </mxCell>
        <mxCell id="l8rJwzOzQN6QrvlHHMYV-78" value="" style="endArrow=classic;html=1;rounded=0;exitX=0.5;exitY=0.5;exitDx=0;exitDy=0;exitPerimeter=0;entryX=0;entryY=0.5;entryDx=0;entryDy=0;" edge="1" parent="1" source="l8rJwzOzQN6QrvlHHMYV-22" target="l8rJwzOzQN6QrvlHHMYV-14">
          <mxGeometry width="50" height="50" relative="1" as="geometry">
            <mxPoint x="430" y="620" as="sourcePoint" />
            <mxPoint x="480" y="570" as="targetPoint" />
          </mxGeometry>
        </mxCell>
        <mxCell id="l8rJwzOzQN6QrvlHHMYV-81" value="" style="endArrow=classic;html=1;rounded=0;exitX=1;exitY=0.3333333333333333;exitDx=0;exitDy=0;exitPerimeter=0;entryX=0;entryY=0;entryDx=0;entryDy=0;" edge="1" parent="1" source="l8rJwzOzQN6QrvlHHMYV-26" target="l8rJwzOzQN6QrvlHHMYV-20">
          <mxGeometry width="50" height="50" relative="1" as="geometry">
            <mxPoint x="430" y="620" as="sourcePoint" />
            <mxPoint x="480" y="570" as="targetPoint" />
          </mxGeometry>
        </mxCell>
        <mxCell id="l8rJwzOzQN6QrvlHHMYV-82" value="" style="endArrow=classic;html=1;rounded=0;exitX=1;exitY=0.3333333333333333;exitDx=0;exitDy=0;exitPerimeter=0;entryX=0.086;entryY=0.3;entryDx=0;entryDy=0;entryPerimeter=0;" edge="1" parent="1" source="l8rJwzOzQN6QrvlHHMYV-22" target="l8rJwzOzQN6QrvlHHMYV-20">
          <mxGeometry width="50" height="50" relative="1" as="geometry">
            <mxPoint x="430" y="730" as="sourcePoint" />
            <mxPoint x="480" y="680" as="targetPoint" />
          </mxGeometry>
        </mxCell>
        <mxCell id="l8rJwzOzQN6QrvlHHMYV-83" value="Sistema de pago" style="shape=umlActor;verticalLabelPosition=bottom;verticalAlign=top;html=1;outlineConnect=0;" vertex="1" parent="1">
          <mxGeometry x="720" y="990" width="30" height="60" as="geometry" />
        </mxCell>
        <mxCell id="l8rJwzOzQN6QrvlHHMYV-86" value="" style="endArrow=none;dashed=1;html=1;dashPattern=1 3;strokeWidth=2;rounded=0;exitX=1;exitY=0.5;exitDx=0;exitDy=0;" edge="1" parent="1" source="l8rJwzOzQN6QrvlHHMYV-20" target="l8rJwzOzQN6QrvlHHMYV-83">
          <mxGeometry width="50" height="50" relative="1" as="geometry">
            <mxPoint x="430" y="930" as="sourcePoint" />
            <mxPoint x="480" y="880" as="targetPoint" />
          </mxGeometry>
        </mxCell>
        <mxCell id="l8rJwzOzQN6QrvlHHMYV-87" value="Servicio Gmail" style="shape=umlActor;verticalLabelPosition=bottom;verticalAlign=top;html=1;outlineConnect=0;" vertex="1" parent="1">
          <mxGeometry x="720" y="564.5" width="30" height="60" as="geometry" />
        </mxCell>
        <mxCell id="l8rJwzOzQN6QrvlHHMYV-89" value="" style="endArrow=none;dashed=1;html=1;dashPattern=1 3;strokeWidth=2;rounded=0;entryX=0;entryY=0.3333333333333333;entryDx=0;entryDy=0;entryPerimeter=0;exitX=1;exitY=0.5;exitDx=0;exitDy=0;" edge="1" parent="1" source="l8rJwzOzQN6QrvlHHMYV-2" target="l8rJwzOzQN6QrvlHHMYV-87">
          <mxGeometry width="50" height="50" relative="1" as="geometry">
            <mxPoint x="430" y="530" as="sourcePoint" />
            <mxPoint x="480" y="480" as="targetPoint" />
          </mxGeometry>
        </mxCell>
        <mxCell id="l8rJwzOzQN6QrvlHHMYV-90" value="" style="endArrow=none;dashed=1;html=1;dashPattern=1 3;strokeWidth=2;rounded=0;entryX=1;entryY=0.5;entryDx=0;entryDy=0;exitX=0;exitY=0.3333333333333333;exitDx=0;exitDy=0;exitPerimeter=0;" edge="1" parent="1" source="l8rJwzOzQN6QrvlHHMYV-87" target="l8rJwzOzQN6QrvlHHMYV-6">
          <mxGeometry width="50" height="50" relative="1" as="geometry">
            <mxPoint x="430" y="440" as="sourcePoint" />
            <mxPoint x="480" y="390" as="targetPoint" />
          </mxGeometry>
        </mxCell>
        <mxCell id="l8rJwzOzQN6QrvlHHMYV-91" value="" style="endArrow=none;dashed=1;html=1;dashPattern=1 3;strokeWidth=2;rounded=0;entryX=0;entryY=0.3333333333333333;entryDx=0;entryDy=0;entryPerimeter=0;exitX=0.99;exitY=0.383;exitDx=0;exitDy=0;exitPerimeter=0;" edge="1" parent="1" source="l8rJwzOzQN6QrvlHHMYV-21" target="l8rJwzOzQN6QrvlHHMYV-87">
          <mxGeometry width="50" height="50" relative="1" as="geometry">
            <mxPoint x="430" y="840" as="sourcePoint" />
            <mxPoint x="480" y="790" as="targetPoint" />
          </mxGeometry>
        </mxCell>
        <mxCell id="l8rJwzOzQN6QrvlHHMYV-92" value="Servicio Notificaciones" style="shape=umlActor;verticalLabelPosition=bottom;verticalAlign=top;html=1;outlineConnect=0;" vertex="1" parent="1">
          <mxGeometry x="740" y="680" width="30" height="60" as="geometry" />
        </mxCell>
        <mxCell id="l8rJwzOzQN6QrvlHHMYV-93" value="" style="endArrow=none;dashed=1;html=1;dashPattern=1 3;strokeWidth=2;rounded=0;" edge="1" parent="1" source="l8rJwzOzQN6QrvlHHMYV-92">
          <mxGeometry width="50" height="50" relative="1" as="geometry">
            <mxPoint x="430" y="1040" as="sourcePoint" />
            <mxPoint x="560" y="710" as="targetPoint" />
          </mxGeometry>
        </mxCell>
        <mxCell id="l8rJwzOzQN6QrvlHHMYV-94" value="" style="endArrow=classic;html=1;rounded=0;exitX=0.5;exitY=0.5;exitDx=0;exitDy=0;exitPerimeter=0;entryX=0.13;entryY=0.286;entryDx=0;entryDy=0;entryPerimeter=0;" edge="1" parent="1" source="l8rJwzOzQN6QrvlHHMYV-28" target="l8rJwzOzQN6QrvlHHMYV-21">
          <mxGeometry width="50" height="50" relative="1" as="geometry">
            <mxPoint x="430" y="740" as="sourcePoint" />
            <mxPoint x="480" y="690" as="targetPoint" />
          </mxGeometry>
        </mxCell>
        <mxCell id="l8rJwzOzQN6QrvlHHMYV-96" value="" style="endArrow=classic;html=1;rounded=0;entryX=0.015;entryY=0.337;entryDx=0;entryDy=0;entryPerimeter=0;" edge="1" parent="1" source="l8rJwzOzQN6QrvlHHMYV-22" target="l8rJwzOzQN6QrvlHHMYV-21">
          <mxGeometry width="50" height="50" relative="1" as="geometry">
            <mxPoint x="110" y="500" as="sourcePoint" />
            <mxPoint x="480" y="650" as="targetPoint" />
          </mxGeometry>
        </mxCell>
        <mxCell id="l8rJwzOzQN6QrvlHHMYV-98" value="" style="endArrow=classic;html=1;rounded=0;entryX=0.066;entryY=0.246;entryDx=0;entryDy=0;entryPerimeter=0;" edge="1" parent="1" source="l8rJwzOzQN6QrvlHHMYV-26" target="l8rJwzOzQN6QrvlHHMYV-21">
          <mxGeometry width="50" height="50" relative="1" as="geometry">
            <mxPoint x="110" y="350" as="sourcePoint" />
            <mxPoint x="480" y="470" as="targetPoint" />
          </mxGeometry>
        </mxCell>
        <mxCell id="l8rJwzOzQN6QrvlHHMYV-99" value="" style="endArrow=classic;html=1;rounded=0;entryX=0.049;entryY=0.368;entryDx=0;entryDy=0;entryPerimeter=0;" edge="1" parent="1" target="l8rJwzOzQN6QrvlHHMYV-15">
          <mxGeometry width="50" height="50" relative="1" as="geometry">
            <mxPoint x="70" y="850" as="sourcePoint" />
            <mxPoint x="480" y="1020" as="targetPoint" />
          </mxGeometry>
        </mxCell>
        <mxCell id="l8rJwzOzQN6QrvlHHMYV-100" value="" style="endArrow=classic;html=1;rounded=0;exitX=0.5;exitY=0.5;exitDx=0;exitDy=0;exitPerimeter=0;entryX=0;entryY=0.5;entryDx=0;entryDy=0;" edge="1" parent="1" source="l8rJwzOzQN6QrvlHHMYV-22" target="l8rJwzOzQN6QrvlHHMYV-16">
          <mxGeometry width="50" height="50" relative="1" as="geometry">
            <mxPoint x="430" y="1070" as="sourcePoint" />
            <mxPoint x="480" y="1020" as="targetPoint" />
          </mxGeometry>
        </mxCell>
        <mxCell id="l8rJwzOzQN6QrvlHHMYV-101" value="" style="endArrow=classic;html=1;rounded=0;entryX=0;entryY=0.5;entryDx=0;entryDy=0;" edge="1" parent="1" source="l8rJwzOzQN6QrvlHHMYV-22" target="l8rJwzOzQN6QrvlHHMYV-17">
          <mxGeometry width="50" height="50" relative="1" as="geometry">
            <mxPoint x="430" y="1070" as="sourcePoint" />
            <mxPoint x="480" y="1020" as="targetPoint" />
          </mxGeometry>
        </mxCell>
        <mxCell id="l8rJwzOzQN6QrvlHHMYV-102" value="" style="endArrow=classic;html=1;rounded=0;exitX=0.5;exitY=0.5;exitDx=0;exitDy=0;exitPerimeter=0;entryX=0.06;entryY=0.32;entryDx=0;entryDy=0;entryPerimeter=0;" edge="1" parent="1" source="l8rJwzOzQN6QrvlHHMYV-22" target="l8rJwzOzQN6QrvlHHMYV-18">
          <mxGeometry width="50" height="50" relative="1" as="geometry">
            <mxPoint x="430" y="1070" as="sourcePoint" />
            <mxPoint x="480" y="1020" as="targetPoint" />
          </mxGeometry>
        </mxCell>
        <mxCell id="l8rJwzOzQN6QrvlHHMYV-103" value="" style="endArrow=classic;html=1;rounded=0;entryX=0;entryY=0.5;entryDx=0;entryDy=0;" edge="1" parent="1" source="l8rJwzOzQN6QrvlHHMYV-22" target="l8rJwzOzQN6QrvlHHMYV-19">
          <mxGeometry width="50" height="50" relative="1" as="geometry">
            <mxPoint x="430" y="1170" as="sourcePoint" />
            <mxPoint x="480" y="1120" as="targetPoint" />
          </mxGeometry>
        </mxCell>
      </root>
    </mxGraphModel>
  </diagram>
</mxfile>
